<?xml version="1.0" encoding="UTF-8"?>
<svg width="28px" height="28px" viewBox="0 0 28 28" version="1.1" xmlns="http://www.w3.org/2000/svg" xmlns:xlink="http://www.w3.org/1999/xlink">
    <title>Group</title>
    <g id="Group" stroke="none" stroke-width="1" fill="none" fill-rule="evenodd">
        <g transform="translate(2.000000, 2.000000)" stroke="#616269">
            <ellipse id="Oval" fill-opacity="0.25" fill="#D8D8D8" cx="9.22373436" cy="9.11427132" rx="8.72373436" ry="8.61427132"></ellipse>
            <path d="M19.0243774,14.241003 C19.3722065,14.1378055 19.4664858,14.1776448 19.5343763,14.2455352 C19.6008319,14.3119909 19.642116,14.4036182 19.6427206,14.5049094 L19.6427206,14.5049094 L19.7008729,24.2469749 C19.7014488,24.3434595 19.6628621,24.4310434 19.6000103,24.4946501 C19.5371584,24.5582568 19.4500415,24.5978863 19.3565414,24.5984533 L19.3565414,24.5984533 C19.2480944,24.5978576 19.1564671,24.5565736 19.0900114,24.4901179 C19.0235557,24.4236622 18.9822716,24.3320349 18.981667,24.2307437 L18.981667,24.2307437 L18.9235148,14.4886782 C18.9229388,14.3921936 18.9615255,14.3046097 19.0243774,14.241003 Z" id="Rectangle" fill="#616269" transform="translate(19.312194, 19.367827) rotate(-45.000000) translate(-19.312194, -19.367827) "></path>
        </g>
    </g>
</svg>